<?xml version="1.0" encoding="UTF-8"?>
<svg width="133px" height="116px" viewBox="0 0 133 116" version="1.1" xmlns="http://www.w3.org/2000/svg" xmlns:xlink="http://www.w3.org/1999/xlink">
    <!-- Generator: Sketch 48.2 (47327) - http://www.bohemiancoding.com/sketch -->
    <title>Hackages_Logo horizontal 3 colors Copy</title>
    <desc>Created with Sketch.</desc>
    <defs></defs>
    <g id="21-profile-attendees-empty-copy" stroke="none" stroke-width="1" fill="none" fill-rule="evenodd" transform="translate(-1173.000000, -106.000000)">
        <g id="Group-16" transform="translate(-2.000000, 60.000000)" fill="#00CCBE" fill-rule="nonzero">
            <g id="Hackages_Logo-horizontal-3-colors-Copy" transform="translate(1175.000000, 46.000000)">
                <path d="M132.999674,58.0096753 C133.008919,57.2779481 132.821522,56.5571 132.456952,55.9220236 L101.289206,2.06834215 C100.550862,0.800927588 99.1925377,0.0205471969 97.722748,0.0193506748 L95.4161798,0.0193506748 C94.9552798,0.0214713398 94.5300377,0.267059709 94.2987933,0.664670389 C94.067549,1.06228107 94.0649523,1.55233577 94.2919701,1.9523615 L120.730281,47.7453879 C121.462041,49.0173011 121.460245,50.5813576 120.725566,51.851596 C119.990888,53.1218345 118.634218,53.9065261 117.163823,53.9116924 L117.066908,53.9116924 C115.597119,53.9104959 114.238795,53.1301155 113.50045,51.8627009 L104.642453,36.5532552 C104.185045,35.7551772 103.335167,35.2613801 102.413416,35.258138 L72.5249439,35.258138 C72.0640439,35.2602586 71.6388018,35.505847 71.4075575,35.9034577 C71.1763131,36.3010684 71.1737164,36.7911231 71.4007342,37.1911488 L77.5063559,47.7453879 C78.2334467,49.0250738 78.2208067,50.5943779 77.4731966,51.8622505 C76.7255865,53.1301231 75.3565649,53.90398 73.8817487,53.8923623 C72.4108927,53.8951465 71.050717,53.1137022 70.3152903,51.8433708 L41.1246034,1.29513782 C40.6637587,0.491058658 39.8048634,-0.00367559159 38.8761839,2.05665582e-05 L35.3678743,2.05665582e-05 C33.9021119,0.0159834956 32.5536363,0.80228794 31.8207988,2.06834215 L0.556138772,55.9026935 C-0.185379591,57.1755171 -0.185379591,58.7471831 0.556138772,60.0200066 L1.7578802,62.1849787 C1.99236341,62.5759529 2.41558375,62.8153116 2.87239846,62.8153116 C3.32921316,62.8153116 3.75243351,62.5759529 3.98691672,62.1849787 L30.5609086,16.3146319 C31.2928721,15.0390875 32.6537023,14.2521011 34.127367,14.2521011 C35.6010318,14.2521011 36.9618619,15.0390875 37.6938254,16.3146319 C38.4238851,17.5836115 38.4238851,19.1436353 37.6938254,20.4126148 L28.8358282,35.7220606 C28.3753255,36.5175011 28.3753255,37.4975244 28.8358282,38.292965 L43.8188301,64.1179895 C44.0533133,64.5089637 44.4765337,64.7483225 44.9333484,64.7483225 C45.3901631,64.7483225 45.8133834,64.5089637 46.0478667,64.1179895 L52.1534884,53.5637504 C52.8932956,52.2985566 54.2513455,51.5205319 55.7199468,51.5205319 C57.1885482,51.5205319 58.5465981,52.2985566 59.2864053,53.5637504 C60.0279236,54.836574 60.0279236,56.40824 59.2864053,57.6810635 L30.0181867,108.325947 C29.550186,109.126285 29.550186,110.115843 30.0181867,110.916182 L31.76265,113.951009 C32.5009948,115.218423 33.8593188,115.998803 35.3291084,116 L97.7615139,116 C99.1743419,115.993344 100.484665,115.263314 101.231058,114.066989 L101.231058,113.912348 L102.37465,111.979337 C102.601668,111.579312 102.599071,111.089257 102.367827,110.691646 C102.136583,110.294036 101.711341,110.048447 101.250441,110.046327 L48.3544349,110.046327 C46.8517177,110.06763 45.4572095,109.269113 44.7181112,107.964111 C43.9790129,106.65911 44.013239,105.055821 44.8073594,103.783372 C45.5457042,102.515957 46.9040281,101.735577 48.3738178,101.73438 L66.1285782,101.73438 C67.0503293,101.731138 67.9002073,101.237341 68.3576148,100.439263 L83.282468,74.6528985 C83.5094857,74.2528728 83.506889,73.7628181 83.2756447,73.3652074 C83.0444003,72.9675967 82.6191582,72.7220084 82.1582582,72.7198877 L70.0051635,72.7198877 C68.5347685,72.7147214 67.178099,71.9300298 66.4434203,70.6597913 C65.7087416,69.3895529 65.7069456,67.8254964 66.4387051,66.5535832 C67.1367971,65.226486 68.5028006,64.382464 70.0051635,64.3499508 L128.386537,64.3499508 C129.315217,64.353647 130.174112,63.8589127 130.634957,63.0548336 L132.437569,59.9426862 C132.776368,59.3531835 132.96287,58.6889187 132.980291,58.0096753 L132.999674,58.0096753 Z" id="Shape"></path>
                <path d="M31.5830389,1.47113281 L0.551983392,55.3804073 C-0.183994464,56.6550023 -0.183994464,58.2288556 0.551983392,59.5034506 L1.7447456,61.6714358 C1.97747679,62.0629541 2.3975349,62.302646 2.85093636,62.302646 C3.30433781,62.302646 3.72439592,62.0629541 3.95712711,61.6714358 L30.3325624,15.7372496 C31.0590568,14.4599299 32.409719,13.6718483 33.8723728,13.6718483 C35.3350266,13.6718483 36.6856888,14.4599299 37.4121832,15.7372496 C38.136788,17.0079953 38.136788,18.5701902 37.4121832,19.8409359 L28.6203715,35.1716883 C28.1633096,35.9682359 28.1633096,36.949623 28.6203715,37.7461707 L43.4914229,63.6071368 C43.724154,63.9986551 44.1442122,64.238347 44.5976136,64.238347 C45.0510151,64.238347 45.4710732,63.9986551 45.7038044,63.6071368 L51.7638059,53.0382091 C52.4980854,51.7712544 53.8459882,50.9921469 55.3036163,50.9921469 C56.7612445,50.9921469 58.1091473,51.7712544 58.8434268,53.0382091 C59.5794046,54.312804 59.5794046,55.8866574 58.8434268,57.1612523 L29.7938956,107.87662 C29.3293917,108.678072 29.3293917,109.669007 29.7938956,110.47046 L31.5253246,113.50951 C31.8817016,114.127641 32.3923245,114.64142 33.0066583,115 L66,57.4903215 L32.9297059,0 C32.3671029,0.371122242 31.9044742,0.876509468 31.5830389,1.47113281 Z" id="Shape"></path>
                <path d="M39.6451912,73.2502915 L24.558407,47.6263623 C24.3213797,47.237851 23.8935675,47 23.4317964,47 C22.9700254,47 22.5422132,47.237851 22.3051859,47.6263623 L8.35480878,71.1565822 C7.88173041,71.9518789 7.88173041,72.9352034 8.35480878,73.7305001 L23.4611863,99.3736377 C23.6982136,99.762149 24.1260258,100 24.5877968,100 C25.0495678,100 25.47738,99.762149 25.7144073,99.3736377 L39.6451912,75.8242095 C40.1182696,75.0289127 40.1182696,74.0455883 39.6451912,73.2502915 Z" id="Shape"></path>
                <path d="M131.461007,55.9120007 L100.526013,2.0686865 C99.793182,0.801060934 98.4450016,0.0205506178 96.9861879,0.0193538965 L94.6968445,0.0193538965 C94.2393863,0.0214749146 93.8173198,0.267104171 93.5878023,0.664781049 C93.3582849,1.06245793 93.3557075,1.55259422 93.58103,1.95268654 L119.821908,47.753337 C120.548203,49.0254619 120.54642,50.5897788 119.817228,51.8602288 C119.088036,53.1306787 117.741497,53.915501 116.282083,53.9206681 L116.185892,53.9206681 C114.727078,53.9194714 113.378898,53.1389611 112.646067,51.8713355 L103.854218,36.5593409 C103.400227,35.76113 102.556695,35.2672507 101.641828,35.2640081 L71.9765534,35.2640081 C71.5190953,35.2661291 71.0970288,35.5117583 70.8675113,35.9094352 C70.6379938,36.3071121 70.6354165,36.7972484 70.860739,37.1973407 L76.9207658,47.753337 C77.6424269,49.033236 77.6298813,50.6028013 76.8878541,51.870885 C76.1458269,53.1389687 74.7870288,53.9129545 73.3232261,53.9013348 C71.8633539,53.9041195 70.5133356,53.1225451 69.7834009,51.8520022 L40.8107012,1.29535344 C40.353298,0.491140414 39.5008166,-0.00367620354 38.5790723,2.05699823e-05 L35.0969617,2.05699823e-05 C34.3586189,-0.000958959215 33.6338602,0.199502445 33,0.580020364 L65.9934793,58 L132,58 C132.008852,57.2681509 131.822854,56.5471829 131.461007,55.9120007 Z" id="Shape"></path>
                <path d="M66.0409697,25.7022769 C66.5093851,26.5079611 67.3823901,27.0036829 68.3263258,26.9999794 L98.6860998,26.9999794 C99.1545714,26.9978545 99.5867993,26.7517759 99.8218425,26.3533715 C100.056886,25.9549672 100.059525,25.4639343 99.8287779,25.06311 L86.0378357,1.29772307 C85.5694203,0.492038872 84.6964152,-0.00368292853 83.7524796,2.06076116e-05 L53.3139002,2.06076116e-05 C52.8454286,0.00214550579 52.4132007,0.2482241 52.1781575,0.64662846 C51.9431144,1.04503282 51.940475,1.53606573 52.1712221,1.93688996 L66.0409697,25.7022769 Z" id="Shape"></path>
                <path d="M122.689399,72.0000206 L94.729128,72.0000206 C93.7797026,71.9963262 92.9016203,72.4908127 92.4304807,73.2944891 L77.1722179,99.0679369 C76.9401288,99.4677622 76.9427835,99.9575715 77.1791937,100.354983 C77.4156038,100.752394 77.8503455,100.99786 78.3215416,100.999979 L106.321445,100.999979 C107.27087,101.003674 108.148952,100.509187 108.620092,99.7055109 L123.838723,73.9127427 C124.06096,73.5142475 124.053053,73.0314089 123.817882,72.6400337 C123.582711,72.2486585 123.154589,72.0058512 122.689399,72.0000206 Z" id="Shape"></path>
                <path d="M100.602253,113.931333 L101.736648,111.998 C101.96184,111.597908 101.959264,111.107771 101.729879,110.710094 C101.500495,110.312417 101.078673,110.066788 100.62148,110.064667 L48.1509031,110.064667 C46.6369295,110.127479 45.2132532,109.340649 44.4545294,108.021774 C43.6958056,106.702899 43.7272694,105.069673 44.5362206,103.781333 C45.2686271,102.513707 46.6160264,101.733197 48.073995,101.732 L65.6859584,101.732 C66.6002961,101.728757 67.4433388,101.234878 67.8970674,100.436667 L82.7018839,74.646 C82.9270758,74.2459075 82.9244999,73.7557711 82.6951155,73.358094 C82.465731,72.960417 82.043909,72.7147877 81.5867159,72.7126667 L69.5313653,72.7126667 C68.0727964,72.7074995 66.7270382,71.922677 65.9982683,70.6522266 C65.2694984,69.3817762 65.2677168,67.8174588 65.993591,66.5453333 C66.6860684,65.2180148 68.0410856,64.3738519 69.5313653,64.3413333 L127.443193,64.3413333 C128.364403,64.3450301 129.216391,63.8502133 129.673529,63.046 L131.461643,59.9333333 C131.797717,59.3437323 131.982719,58.6793567 132,58 L66.0512721,58 L33,115.439333 C33.6241694,115.806399 34.3342112,115.999904 35.0572927,116 L97.0644785,116 C98.4659435,115.993343 99.7657285,115.263192 100.506118,114.066667 L100.602253,113.931333 Z" id="Shape"></path>
            </g>
        </g>
    </g>
</svg>